<?xml version="1.0" standalone="no"?><!DOCTYPE svg PUBLIC "-//W3C//DTD SVG 1.1//EN" "http://www.w3.org/Graphics/SVG/1.1/DTD/svg11.dtd"><svg t="1544243966952" class="icon" style="" viewBox="0 0 1024 1024" version="1.1" xmlns="http://www.w3.org/2000/svg" p-id="510" xmlns:xlink="http://www.w3.org/1999/xlink" width="50" height="50"><defs><style type="text/css"></style></defs><path d="M891.093333 674.56v49.664h84.565334c17.322667 0 47.061333-13.44 48.085333-50.986667v-19.2c0-32.128-24.832-51.029333-48.085333-51.029333h-42.154667v-23.04h83.498667v-49.92h-80.128c-20.693333 0-48.384 18.090667-48.384 51.84v17.28c0 33.706667 27.434667 51.029333 48.384 51.029333 58.154667 0.256-13.994667 0 39.808 0v24.106667l-85.589334 0.298667z m-453.034666-12.032s45.226667-4.138667 45.226666-66.133333c0-61.952-54.826667-67.712-54.826666-67.712H329.685333v195.541333h49.664V677.12l42.922667 47.146667h73.429333l-57.642666-61.696z m-19.157334-40.064h-39.552v-44.714667h39.808s11.093333 4.394667 11.093334 22.229334c0 17.834667-11.349333 22.485333-11.349334 22.485333z m186.965334-92.416h-50.432c-35.925333 0-48.085333 34.56-48.085334 51.029333v143.146667h50.432v-34.261333h47.317334v34.261333h48.853333V581.12c0-41.728-35.669333-51.029333-48.085333-51.029333z m-0.768 104.533333h-47.573334V587.093333s0-10.666667 15.786667-10.666666h17.28c13.994667 0 14.250667 10.666667 14.250667 10.666666v47.445334h0.256z m71.893333-104.533333h52.48v194.176h-52.48v-194.176z m126.165333 144v-144H750.933333v194.176h122.837334v-50.176h-70.613334z" fill="#d81e06" p-id="511"></path><path d="M18.090667 724.224h204.288s-39.04-188.970667 90.24-265.514667c28.16-14.506667 117.930667-68.821333 264.789333 46.378667 4.693333-4.138667 9.045333-7.424 9.045333-7.424s-134.442667-142.336-284.16-126.421333c-75.264 7.125333-167.808 79.786667-222.122666 175.786666C25.856 643.029333 18.090667 724.224 18.090667 724.224z" fill="#d81e06" p-id="512"></path><path d="M18.090667 724.224h204.288s-39.04-188.970667 90.24-265.514667c28.16-14.506667 117.930667-68.821333 264.789333 46.378667 4.693333-4.138667 9.045333-7.424 9.045333-7.424s-134.442667-142.336-284.16-126.421333c-75.264 7.125333-167.808 79.786667-222.122666 175.786666C25.856 643.029333 18.090667 724.224 18.090667 724.224z" fill="#d81e06" p-id="513"></path><path d="M18.090667 724.224h204.288s-39.04-188.970667 90.24-265.514667c28.16-14.506667 117.930667-68.821333 264.789333 46.378667 4.693333-4.138667 9.045333-7.424 9.045333-7.424s-134.442667-142.336-284.16-126.421333c-75.52 7.125333-168.106667 79.786667-222.378666 175.786666C25.6 643.029333 18.090667 724.224 18.090667 724.224zM443.733333 386.602667l1.024-18.389334c-2.304-1.365333-8.789333-4.693333-25.088-9.6l-1.024 18.090667c8.533333 3.029333 16.810667 6.314667 25.088 9.898667z" fill="#d81e06" p-id="514"></path><path d="M419.157333 444.757333l-1.024 17.28c8.533333 0.256 17.066667 1.365333 25.6 3.285334l1.024-17.024a173.226667 173.226667 0 0 0-25.6-3.541334zM323.498667 359.168h2.56l-5.12-16.725333c-8.064 0-16.341333 0.554667-24.874667 1.621333l4.949333 16.213333c7.466667-0.853333 14.976-1.109333 22.485334-1.109333z m12.373333 100.949333l5.973333 18.901334a158.293333 158.293333 0 0 1 22.485334-9.6l-5.674667-18.090667a180.821333 180.821333 0 0 0-22.741333 8.789333z m-117.333333-72.149333l-11.690667-18.944c-6.442667 3.584-13.184 7.424-20.138667 11.818667l11.904 19.2c6.698667-4.394667 13.184-8.533333 19.882667-12.074667z m52.992 123.434667l12.373333 19.754666c4.437333-6.869333 9.6-13.184 15.274667-19.498666l-11.648-18.645334c-5.930667 5.76-11.349333 12.074667-16 18.346667z m-37.546667 88.32l20.992 17.536c1.024-10.666667 2.816-21.376 5.418667-32.085334l-18.602667-15.616a273.408 273.408 0 0 0-7.765333 30.165334zM120.746667 469.418667l-18.346667-16.981334c-6.741333 6.826667-13.226667 13.696-19.114667 20.565334l19.882667 18.090666c5.418667-7.424 11.392-14.805333 17.578667-21.674666zM42.666667 592.042667l-29.738667-11.52c-4.906667 11.776-10.325333 25.514667-12.928 32.896l29.738667 11.52c3.370667-9.301333 8.789333-22.741333 12.928-32.896z m187.477333 77.354666c0.512 14.506667 1.792 26.325333 3.114667 34.56l31.018666 11.776a382.378667 382.378667 0 0 1-6.229333-35.669333l-27.904-10.666667z" fill="#d81e06" p-id="515"></path></svg>